# xmcd
#
# Track frame offsets:
#	150
#	14195
#	30955
#	55184
#	72080
#	94955
#
# Disc length: 1506 seconds
#
# Revision: 0
# Processed by: cddbd v1.5.1PL2 Copyright (c) Steve Scherf et al.
# Submitted via: EasyCDDAExtractor 9.0.0.1
#
DISCID=4905e006
DTITLE=Angus and Julia Stone - Chocolates and Cigarettes
DYEAR=2006
DGENRE=Acoustic
TTITLE0=Private Lawns
TTITLE1=Mango Tree
TTITLE2=All of Me
TTITLE3=Paper Aeroplane
TTITLE4=Babylon
TTITLE5=Chocolates and Cigarettes
EXTD=
EXTT0=
EXTT1=
EXTT2=
EXTT3=
EXTT4=
EXTT5=
PLAYORDER=
